<?xml version="1.0" encoding="UTF-8" standalone="no"?>
<!DOCTYPE svg PUBLIC "-//W3C//DTD SVG 1.1//EN"
 "http://www.w3.org/Graphics/SVG/1.1/DTD/svg11.dtd">
<!-- Generated by graphviz version 2.47.0 (20210316.0004)
 -->
<!-- Title: dependencies Pages: 1 -->
<svg width="818pt" height="360pt"
 viewBox="0.00 0.00 818.00 360.00" xmlns="http://www.w3.org/2000/svg" xmlns:xlink="http://www.w3.org/1999/xlink">
<g id="graph0" class="graph" transform="scale(1 1) rotate(0) translate(4 356)">
<title>dependencies</title>
<polygon fill="white" stroke="transparent" points="-4,4 -4,-356 814,-356 814,4 -4,4"/>
<text text-anchor="start" x="384.01" y="-42.4" font-family="sans-serif" font-weight="bold" font-size="14.00">Legend</text>
<polygon fill="#ffffb3" stroke="transparent" points="171,-10 171,-30 191,-30 191,-10 171,-10"/>
<text text-anchor="start" x="194.63" y="-15.4" font-family="sans-serif" font-size="14.00"> &#160;Declarations</text>
<polygon fill="#8dd3c7" stroke="transparent" points="284,-10 284,-30 304,-30 304,-10 284,-10"/>
<text text-anchor="start" x="307.73" y="-15.4" font-family="sans-serif" font-size="14.00"> &#160;Module</text>
<polygon fill="#80b1d3" stroke="transparent" points="370,-10 370,-30 390,-30 390,-10 370,-10"/>
<text text-anchor="start" x="393.78" y="-15.4" font-family="sans-serif" font-size="14.00"> &#160;Bootstrap</text>
<polygon fill="#fdb462" stroke="transparent" points="467,-10 467,-30 487,-30 487,-10 467,-10"/>
<text text-anchor="start" x="490.67" y="-15.4" font-family="sans-serif" font-size="14.00"> &#160;Providers</text>
<polygon fill="#fb8072" stroke="transparent" points="563,-10 563,-30 583,-30 583,-10 563,-10"/>
<text text-anchor="start" x="586.73" y="-15.4" font-family="sans-serif" font-size="14.00"> &#160;Exports</text>
<g id="clust1" class="cluster">
<title>cluster_AboutPageModule</title>
<polygon fill="none" stroke="black" stroke-dasharray="1,5" points="8,-70 8,-206 184,-206 184,-70 8,-70"/>
</g>
<g id="clust2" class="cluster">
<title>cluster_AboutPageModule_declarations</title>
<polygon fill="none" stroke="black" points="16,-78 16,-130 176,-130 176,-78 16,-78"/>
</g>
<g id="clust8" class="cluster">
<title>cluster_AppModule</title>
<polygon fill="none" stroke="black" stroke-dasharray="1,5" points="197,-146 197,-344 626,-344 626,-146 197,-146"/>
</g>
<g id="clust9" class="cluster">
<title>cluster_AppModule_declarations</title>
<polygon fill="none" stroke="black" points="496,-154 496,-206 618,-206 618,-154 496,-154"/>
</g>
<g id="clust11" class="cluster">
<title>cluster_AppModule_imports</title>
<polygon fill="none" stroke="black" points="205,-154 205,-206 488,-206 488,-154 205,-154"/>
</g>
<g id="clust13" class="cluster">
<title>cluster_AppModule_bootstrap</title>
<polygon fill="none" stroke="black" points="282,-284 282,-336 406,-336 406,-284 282,-284"/>
</g>
<g id="clust21" class="cluster">
<title>cluster_HomePageModule</title>
<polygon fill="none" stroke="black" stroke-dasharray="1,5" points="192,-70 192,-138 366,-138 366,-70 192,-70"/>
</g>
<g id="clust22" class="cluster">
<title>cluster_HomePageModule_declarations</title>
<polygon fill="none" stroke="black" points="200,-78 200,-130 358,-130 358,-78 200,-78"/>
</g>
<g id="clust28" class="cluster">
<title>cluster_NgSpeechApiModule</title>
<polygon fill="none" stroke="black" stroke-dasharray="1,5" points="634,-70 634,-206 802,-206 802,-70 634,-70"/>
</g>
<g id="clust33" class="cluster">
<title>cluster_NgSpeechApiModule_providers</title>
<polygon fill="none" stroke="black" points="642,-78 642,-130 794,-130 794,-78 642,-78"/>
</g>
<!-- AboutPageComponent -->
<g id="node1" class="node">
<title>AboutPageComponent</title>
<polygon fill="#ffffb3" stroke="black" points="167.54,-122 24.46,-122 24.46,-86 167.54,-86 167.54,-122"/>
<text text-anchor="middle" x="96" y="-99.8" font-family="Times,serif" font-size="14.00">AboutPageComponent</text>
</g>
<!-- AboutPageModule -->
<g id="node2" class="node">
<title>AboutPageModule</title>
<polygon fill="#8dd3c7" stroke="black" points="165.76,-198 162.76,-202 141.76,-202 138.76,-198 44.24,-198 44.24,-162 165.76,-162 165.76,-198"/>
<text text-anchor="middle" x="105" y="-175.8" font-family="Times,serif" font-size="14.00">AboutPageModule</text>
</g>
<!-- AboutPageComponent&#45;&gt;AboutPageModule -->
<g id="edge1" class="edge">
<title>AboutPageComponent&#45;&gt;AboutPageModule</title>
<path fill="none" stroke="black" d="M105,-122.01C105,-122.01 105,-151.85 105,-151.85"/>
<polygon fill="black" stroke="black" points="101.5,-151.85 105,-161.85 108.5,-151.85 101.5,-151.85"/>
</g>
<!-- AppModule -->
<g id="node4" class="node">
<title>AppModule</title>
<polygon fill="#8dd3c7" stroke="black" points="385.66,-263 382.66,-267 361.66,-267 358.66,-263 302.34,-263 302.34,-227 385.66,-227 385.66,-263"/>
<text text-anchor="middle" x="344" y="-240.8" font-family="Times,serif" font-size="14.00">AppModule</text>
</g>
<!-- AboutPageModule&#45;&gt;AppModule -->
<g id="edge3" class="edge">
<title>AboutPageModule&#45;&gt;AppModule</title>
<path fill="none" stroke="black" d="M105,-198.11C105,-217.34 105,-245 105,-245 105,-245 292.1,-245 292.1,-245"/>
<polygon fill="black" stroke="black" points="292.1,-248.5 302.1,-245 292.1,-241.5 292.1,-248.5"/>
</g>
<!-- AppComponent -->
<g id="node3" class="node">
<title>AppComponent</title>
<polygon fill="#ffffb3" stroke="black" points="609.94,-198 504.06,-198 504.06,-162 609.94,-162 609.94,-198"/>
<text text-anchor="middle" x="557" y="-175.8" font-family="Times,serif" font-size="14.00">AppComponent</text>
</g>
<!-- AppComponent&#45;&gt;AppModule -->
<g id="edge2" class="edge">
<title>AppComponent&#45;&gt;AppModule</title>
<path fill="none" stroke="black" d="M557,-198.11C557,-217.34 557,-245 557,-245 557,-245 395.83,-245 395.83,-245"/>
<polygon fill="black" stroke="black" points="395.83,-241.5 385.83,-245 395.83,-248.5 395.83,-241.5"/>
</g>
<!-- AppComponent  -->
<g id="node7" class="node">
<title>AppComponent </title>
<polygon fill="#80b1d3" stroke="black" points="398.44,-328 289.56,-328 289.56,-292 398.44,-292 398.44,-328"/>
<text text-anchor="middle" x="344" y="-305.8" font-family="Times,serif" font-size="14.00">AppComponent </text>
</g>
<!-- AppModule&#45;&gt;AppComponent  -->
<g id="edge6" class="edge">
<title>AppModule&#45;&gt;AppComponent </title>
<path fill="none" stroke="black" stroke-dasharray="1,5" d="M344,-263.11C344,-263.11 344,-281.99 344,-281.99"/>
<polygon fill="black" stroke="black" points="340.5,-281.99 344,-291.99 347.5,-281.99 340.5,-281.99"/>
</g>
<!-- AppRoutingModule -->
<g id="node5" class="node">
<title>AppRoutingModule</title>
<polygon fill="#8dd3c7" stroke="black" points="480.27,-198 477.27,-202 456.27,-202 453.27,-198 351.73,-198 351.73,-162 480.27,-162 480.27,-198"/>
<text text-anchor="middle" x="416" y="-175.8" font-family="Times,serif" font-size="14.00">AppRoutingModule</text>
</g>
<!-- AppRoutingModule&#45;&gt;AppModule -->
<g id="edge4" class="edge">
<title>AppRoutingModule&#45;&gt;AppModule</title>
<path fill="none" stroke="black" d="M368.72,-198.11C368.72,-198.11 368.72,-216.99 368.72,-216.99"/>
<polygon fill="black" stroke="black" points="365.22,-216.99 368.72,-226.99 372.22,-216.99 365.22,-216.99"/>
</g>
<!-- HomePageModule -->
<g id="node6" class="node">
<title>HomePageModule</title>
<polygon fill="#8dd3c7" stroke="black" points="333.47,-198 330.47,-202 309.47,-202 306.47,-198 212.53,-198 212.53,-162 333.47,-162 333.47,-198"/>
<text text-anchor="middle" x="273" y="-175.8" font-family="Times,serif" font-size="14.00">HomePageModule</text>
</g>
<!-- HomePageModule&#45;&gt;AppModule -->
<g id="edge5" class="edge">
<title>HomePageModule&#45;&gt;AppModule</title>
<path fill="none" stroke="black" d="M317.83,-198.11C317.83,-198.11 317.83,-216.99 317.83,-216.99"/>
<polygon fill="black" stroke="black" points="314.33,-216.99 317.83,-226.99 321.33,-216.99 314.33,-216.99"/>
</g>
<!-- HomePageComponent -->
<g id="node8" class="node">
<title>HomePageComponent</title>
<polygon fill="#ffffb3" stroke="black" points="350.26,-122 207.74,-122 207.74,-86 350.26,-86 350.26,-122"/>
<text text-anchor="middle" x="279" y="-99.8" font-family="Times,serif" font-size="14.00">HomePageComponent</text>
</g>
<!-- HomePageComponent&#45;&gt;HomePageModule -->
<g id="edge7" class="edge">
<title>HomePageComponent&#45;&gt;HomePageModule</title>
<path fill="none" stroke="black" d="M273,-122.01C273,-122.01 273,-151.85 273,-151.85"/>
<polygon fill="black" stroke="black" points="269.5,-151.85 273,-161.85 276.5,-151.85 269.5,-151.85"/>
</g>
<!-- SpeechService -->
<g id="node9" class="node">
<title>SpeechService</title>
<ellipse fill="#fdb462" stroke="black" cx="718" cy="-104" rx="67.75" ry="18"/>
<text text-anchor="middle" x="718" y="-99.8" font-family="Times,serif" font-size="14.00">SpeechService</text>
</g>
<!-- NgSpeechApiModule -->
<g id="node10" class="node">
<title>NgSpeechApiModule</title>
<polygon fill="#8dd3c7" stroke="black" points="787.08,-198 784.08,-202 763.08,-202 760.08,-198 648.92,-198 648.92,-162 787.08,-162 787.08,-198"/>
<text text-anchor="middle" x="718" y="-175.8" font-family="Times,serif" font-size="14.00">NgSpeechApiModule</text>
</g>
<!-- SpeechService&#45;&gt;NgSpeechApiModule -->
<g id="edge8" class="edge">
<title>SpeechService&#45;&gt;NgSpeechApiModule</title>
<path fill="none" stroke="black" d="M718,-122.01C718,-122.01 718,-151.85 718,-151.85"/>
<polygon fill="black" stroke="black" points="714.5,-151.85 718,-161.85 721.5,-151.85 714.5,-151.85"/>
</g>
</g>
</svg>
